<?xml version="1.0" standalone="no"?>
<!DOCTYPE svg PUBLIC "-//W3C//DTD SVG 20010904//EN"
 "http://www.w3.org/TR/2001/REC-SVG-20010904/DTD/svg10.dtd">
<svg version="1.0" xmlns="http://www.w3.org/2000/svg"
 width="800.000000pt" height="800.000000pt" viewBox="0 0 800.000000 800.000000"
 preserveAspectRatio="xMidYMid meet">

<g transform="translate(0.000000,800.000000) scale(0.100000,-0.100000)"
fill="#000000" stroke="none">
<path d="M2476 5770 c-72 -23 -135 -81 -168 -154 -23 -50 -23 -57 -26 -481 -2
-278 0 -442 7 -465 13 -43 -1 -30 811 -801 107 -102 212 -195 233 -208 20 -12
35 -27 31 -32 -3 -5 -27 -20 -53 -34 -132 -67 -177 -157 -145 -296 20 -86 64
-142 128 -161 31 -10 188 -13 648 -13 333 0 610 4 615 8 4 5 -21 36 -57 69
-73 68 -951 901 -1105 1048 -55 53 -149 143 -210 201 -60 58 -154 142 -207
188 -198 167 -211 196 -206 457 2 133 7 187 16 196 18 18 1765 25 1917 8 313
-35 568 -226 695 -520 43 -101 60 -196 70 -393 5 -103 14 -204 19 -225 14 -50
75 -120 125 -143 55 -25 139 -24 196 2 59 26 77 44 109 104 l26 50 0 240 c-1
188 -4 260 -18 330 -51 258 -161 475 -329 651 -196 204 -418 323 -697 375
-100 18 -161 19 -1235 18 -1079 0 -1134 -1 -1190 -19z"/>
<path d="M3690 4750 c0 -5 3 -10 8 -10 4 0 34 -26 67 -57 170 -161 409 -387
480 -453 44 -41 118 -111 165 -156 47 -44 231 -218 410 -385 179 -167 381
-355 448 -418 165 -154 170 -176 80 -298 -140 -191 -336 -323 -540 -365 -56
-12 -1972 -24 -2015 -13 l-23 5 0 468 c0 257 -3 491 -7 520 -20 167 -188 267
-336 199 -61 -28 -89 -54 -120 -112 -22 -40 -22 -43 -22 -685 0 -609 1 -648
19 -694 25 -66 75 -119 139 -147 l52 -24 1085 -3 c1166 -3 1291 0 1490 44 124
28 182 48 275 96 214 109 404 323 493 553 38 100 75 277 76 370 1 82 -2 94
-27 137 -16 26 -77 91 -135 145 -59 54 -177 163 -262 243 -85 80 -211 197
-280 260 -127 117 -209 193 -314 291 l-58 55 46 50 c69 73 90 122 83 196 -6
72 -39 125 -99 165 l-42 28 -568 3 c-385 2 -568 -1 -568 -8z"/>
</g>
</svg>
