<?xml version="1.0" standalone="no"?>
<!DOCTYPE svg PUBLIC "-//W3C//DTD SVG 20010904//EN"
 "http://www.w3.org/TR/2001/REC-SVG-20010904/DTD/svg10.dtd">
<svg version="1.0" xmlns="http://www.w3.org/2000/svg"
 width="800.000000pt" height="800.000000pt" viewBox="0 0 800.000000 800.000000"
 preserveAspectRatio="xMidYMid meet">

<g transform="translate(0.000000,800.000000) scale(0.100000,-0.100000)"
fill="#000000" stroke="none">
<path d="M2895 6141 c-46 -21 -88 -63 -106 -106 -17 -40 -25 -594 -10 -646 7
-23 34 -57 78 -99 62 -57 267 -251 513 -485 52 -50 109 -101 125 -113 l30 -22
-21 -18 c-12 -9 -35 -24 -52 -34 -50 -27 -67 -63 -66 -139 0 -75 16 -108 67
-139 30 -19 53 -20 467 -20 l435 0 -80 78 c-44 42 -125 120 -180 172 -55 52
-188 178 -295 281 -386 367 -456 433 -538 505 -143 125 -152 144 -152 314 0
67 5 130 10 141 10 18 28 19 673 19 634 0 665 -1 735 -20 118 -33 189 -74 272
-159 131 -132 174 -244 185 -475 7 -126 11 -152 29 -178 35 -52 69 -71 128
-72 67 0 115 25 145 80 21 36 23 52 23 197 0 227 -32 367 -117 514 -137 236
-334 375 -611 432 -36 7 -314 11 -850 11 -754 0 -799 -1 -837 -19z"/>
<path d="M3775 5425 c15 -14 102 -97 193 -183 92 -86 346 -325 564 -530 246
-230 400 -383 404 -398 10 -41 -17 -85 -111 -179 -62 -63 -108 -99 -150 -119
-131 -63 -86 -60 -857 -64 l-708 -3 0 349 0 348 -26 53 c-21 42 -36 57 -68 72
-53 24 -100 24 -150 -1 -94 -46 -98 -75 -94 -589 l3 -406 25 -50 c20 -39 35
-55 75 -75 l49 -25 796 0 c847 0 902 3 1052 49 111 35 190 81 274 159 123 115
185 227 224 402 39 176 27 210 -121 345 -243 223 -594 553 -598 562 -2 5 10
24 27 41 41 44 52 69 52 120 0 54 -31 105 -80 129 -32 16 -73 18 -419 18
l-384 0 28 -25z"/>
<path d="M1759 3157 c-44 -29 -71 -82 -65 -125 9 -57 41 -96 114 -136 74 -40
102 -75 102 -126 0 -124 -133 -146 -252 -41 -43 37 -71 41 -66 9 4 -30 91 -94
154 -114 67 -22 118 -12 160 30 31 31 58 100 50 127 -2 8 -7 26 -10 41 -9 42
-54 88 -111 112 -62 28 -95 67 -95 113 0 71 85 109 143 63 40 -32 69 -20 47
20 -27 50 -115 65 -171 27z"/>
<path d="M4875 3170 c-11 -4 -33 -22 -50 -40 -25 -26 -30 -39 -30 -83 0 -69
28 -107 108 -149 96 -51 126 -110 92 -183 -39 -80 -135 -72 -244 20 -35 28
-46 33 -57 24 -12 -10 -12 -15 -1 -33 21 -32 116 -95 161 -107 107 -29 196 36
196 143 0 88 -32 135 -116 173 -62 27 -94 66 -94 112 0 71 85 109 143 63 29
-23 43 -25 50 -7 18 49 -90 96 -158 67z"/>
<path d="M5982 3168 c-6 -7 -14 -53 -18 -101 -7 -91 -14 -107 -34 -82 -7 8
-27 17 -45 21 -105 19 -199 -136 -165 -274 25 -104 103 -141 182 -87 l36 24
16 -24 c9 -14 23 -25 32 -25 22 0 29 28 10 49 -21 23 -20 62 4 296 16 157 17
192 6 203 -10 11 -15 11 -24 0z m-82 -218 c66 -35 41 -237 -34 -271 -61 -28
-106 21 -106 113 1 114 72 194 140 158z"/>
<path d="M3498 3163 c-31 -5 -28 11 -54 -336 -14 -174 -15 -220 -5 -230 10 -9
16 -7 28 11 12 17 25 22 57 22 117 0 238 81 273 183 36 106 16 224 -49 284
-50 47 -172 79 -250 66z m184 -74 c85 -47 114 -169 64 -274 -41 -87 -115 -135
-208 -135 -54 0 -58 2 -58 23 0 12 7 108 15 212 8 105 15 194 15 199 0 18 128
-1 172 -25z"/>
<path d="M6106 3161 c-10 -15 12 -61 28 -61 22 0 27 15 16 44 -9 26 -33 35
-44 17z"/>
<path d="M5220 3125 c-5 -14 -10 -38 -10 -53 0 -54 -11 -72 -40 -72 -30 0 -56
-23 -45 -40 3 -5 19 -10 36 -10 34 0 33 7 17 -144 -13 -128 -4 -163 46 -179
52 -17 130 43 97 76 -8 8 -18 4 -35 -12 -13 -13 -32 -21 -43 -19 -16 3 -18 14
-17 83 0 44 4 106 8 138 l7 57 55 0 c52 0 55 2 52 23 -3 19 -10 22 -51 25
l-48 3 3 71 c3 76 -13 103 -32 53z"/>
<path d="M2573 3014 c-3 -8 4 -25 16 -37 34 -37 36 -75 6 -132 -29 -53 -95
-148 -101 -143 -1 2 -15 64 -29 138 -18 89 -33 142 -45 154 -21 21 -74 26 -92
8 -17 -17 9 -43 37 -36 27 7 27 7 50 -116 38 -205 45 -230 65 -230 20 0 132
149 161 215 32 73 29 119 -10 163 -33 35 -49 40 -58 16z"/>
<path d="M3055 3016 c-12 -8 -16 -19 -12 -30 6 -14 14 -16 38 -11 30 7 31 6
26 -16 -3 -13 -13 -90 -23 -172 -14 -117 -15 -150 -5 -160 21 -20 38 16 45 96
4 39 12 89 17 110 13 51 87 127 122 127 32 0 33 -4 16 -161 -14 -121 -8 -155
26 -171 36 -16 77 -2 73 25 -2 16 -10 21 -33 22 -35 0 -34 -9 -16 153 12 110
12 125 -3 147 -29 45 -74 45 -140 0 l-36 -24 0 23 c0 46 -56 71 -95 42z"/>
<path d="M6090 2998 c-4 -13 -16 -90 -24 -172 -14 -132 -14 -152 -1 -172 20
-31 51 -39 80 -20 29 19 34 56 7 56 -10 0 -23 -5 -30 -12 -24 -24 -25 6 -8
157 10 84 16 161 13 169 -9 23 -26 20 -37 -6z"/>
<path d="M2110 2988 c-71 -36 -110 -110 -110 -211 0 -60 30 -121 70 -142 65
-34 190 -4 190 46 0 23 -27 25 -54 4 -26 -20 -96 -19 -123 0 -27 19 -47 86
-37 128 17 79 61 131 123 143 44 9 71 -10 71 -51 0 -51 -26 -69 -108 -75 -58
-4 -67 -8 -67 -24 0 -49 139 -39 189 13 51 53 43 147 -15 176 -39 21 -78 19
-129 -7z"/>
<path d="M2825 2992 c-78 -37 -118 -108 -118 -208 0 -64 16 -106 53 -139 18
-16 36 -20 91 -20 61 0 71 3 96 27 21 22 25 30 15 40 -9 9 -20 8 -47 -5 -66
-32 -123 -19 -150 33 -45 87 16 218 111 236 64 12 96 -46 55 -97 -16 -20 -31
-25 -88 -29 -60 -4 -68 -8 -71 -26 -3 -18 3 -22 35 -27 79 -13 155 21 179 79
43 103 -55 186 -161 136z"/>
<path d="M3970 2992 c-96 -51 -130 -246 -57 -335 34 -43 101 -49 144 -13 l31
26 16 -25 c9 -14 23 -25 32 -25 23 0 28 29 9 50 -16 18 -17 30 -5 170 9 107
10 154 2 162 -13 13 -32 2 -32 -18 0 -13 -6 -12 -34 5 -41 26 -61 26 -106 3z
m95 -52 c23 -26 32 -119 16 -176 -25 -92 -102 -125 -141 -61 -69 112 44 326
125 237z"/>
<path d="M4244 2995 c-4 -9 10 -82 31 -164 l37 -148 -41 -81 c-25 -49 -54 -92
-76 -109 -38 -30 -47 -63 -17 -63 47 0 90 63 212 304 67 131 120 245 118 255
-8 41 -36 9 -99 -113 l-66 -129 -28 114 c-15 63 -32 122 -37 132 -11 21 -27
22 -34 2z"/>
<path d="M5391 3001 c-19 -12 -6 -41 19 -41 24 0 25 -11 8 -162 -10 -96 -9
-109 6 -133 35 -53 88 -57 145 -10 l30 26 13 -28 c16 -34 55 -40 50 -8 -13 72
-12 107 2 221 17 128 14 153 -17 141 -11 -4 -17 -29 -22 -84 -9 -104 -19 -139
-54 -195 -30 -48 -64 -66 -97 -54 -17 7 -17 39 2 237 6 62 5 67 -17 83 -26 18
-47 20 -68 7z"/>
<path d="M6305 2994 c-118 -61 -143 -303 -36 -358 70 -36 139 -5 184 83 37 74
39 180 4 232 -39 58 -94 73 -152 43z m111 -59 c59 -91 -9 -272 -99 -263 -44 4
-68 43 -68 109 0 104 49 179 117 179 25 0 38 -7 50 -25z"/>
</g>
</svg>
