<?xml version="1.0" standalone="no"?>
<!DOCTYPE svg PUBLIC "-//W3C//DTD SVG 20010904//EN"
 "http://www.w3.org/TR/2001/REC-SVG-20010904/DTD/svg10.dtd">
<svg version="1.0" xmlns="http://www.w3.org/2000/svg"
 width="940.000000pt" height="300.000000pt" viewBox="0 0 940.000000 300.000000"
 preserveAspectRatio="xMidYMid meet">

<g transform="translate(0.000000,300.000000) scale(0.100000,-0.100000)"
fill="#000000" stroke="none">
<path d="M930 2217 c-21 -8 -42 -25 -55 -47 -18 -32 -20 -51 -20 -243 l0 -208
85 -81 c232 -222 290 -277 338 -321 l52 -48 -46 -44 c-44 -42 -46 -46 -41 -86
3 -27 15 -52 31 -68 l26 -26 288 -3 287 -3 -40 39 c-117 114 -626 594 -674
636 -87 76 -96 94 -93 199 1 49 4 93 7 98 4 5 182 9 428 9 348 0 433 -3 482
-15 94 -25 168 -77 224 -160 45 -66 63 -129 70 -245 5 -95 9 -111 29 -133 43
-46 124 -40 158 11 16 22 19 46 18 137 0 61 -6 137 -13 170 -50 229 -241 406
-469 436 -107 13 -1030 10 -1072 -4z"/>
<path d="M1496 1782 c-4 -7 171 -177 398 -387 211 -196 342 -323 348 -337 10
-24 1 -45 -39 -95 -44 -54 -126 -109 -188 -127 -67 -19 -388 -28 -704 -19
l-251 6 0 229 c0 263 -4 279 -69 299 -48 14 -87 3 -115 -35 -20 -26 -21 -40
-21 -326 0 -287 1 -300 21 -327 41 -55 24 -54 629 -50 552 3 561 3 628 26 135
44 230 126 287 246 35 73 58 191 47 236 -6 22 -122 136 -445 434 l-33 31 30
38 c18 22 31 51 31 66 0 38 -34 77 -78 90 -44 12 -469 14 -476 2z"/>
<path d="M3032 1753 c-101 -50 -106 -184 -9 -254 22 -16 45 -29 52 -29 7 0 30
-13 53 -30 99 -71 60 -227 -57 -224 -48 2 -94 24 -155 74 -53 44 -64 48 -73
24 -8 -23 51 -80 121 -114 149 -75 272 -6 264 145 -5 81 -37 124 -124 165
-103 48 -133 122 -75 181 37 36 97 41 126 9 10 -11 27 -20 37 -20 31 0 18 41
-21 67 -40 27 -92 29 -139 6z"/>
<path d="M6380 1762 c-69 -32 -95 -76 -88 -153 6 -61 38 -98 118 -139 71 -36
100 -68 107 -118 11 -78 -40 -138 -117 -136 -42 1 -131 48 -169 88 -29 30 -46
33 -56 9 -9 -23 57 -83 131 -119 45 -22 64 -26 114 -22 52 4 65 9 94 37 70 68
68 189 -6 258 -13 12 -44 31 -69 42 -110 49 -138 134 -65 193 29 24 87 23 120
-3 26 -20 56 -20 56 0 0 14 -41 51 -68 62 -27 10 -80 11 -102 1z"/>
<path d="M4905 1753 c-16 -3 -33 -8 -37 -11 -4 -4 -14 -108 -23 -232 -8 -124
-18 -255 -22 -292 -6 -64 -5 -68 15 -68 11 0 23 8 27 19 4 15 18 19 78 23 174
12 287 131 287 301 0 84 -13 126 -55 175 -52 60 -174 98 -270 85z m165 -67
c91 -38 134 -135 111 -249 -24 -113 -124 -196 -243 -200 -31 -1 -58 0 -61 3
-5 6 22 437 29 459 6 18 112 9 164 -13z"/>
<path d="M7556 1738 c-3 -13 -8 -62 -11 -110 l-7 -86 -35 24 c-40 27 -58 29
-100 13 -42 -16 -73 -48 -99 -104 -44 -93 -25 -235 37 -279 35 -24 98 -20 141
9 l36 24 16 -24 c19 -29 56 -34 56 -8 0 9 -8 25 -17 35 -16 18 -15 32 5 246
28 280 28 282 2 282 -12 0 -21 -8 -24 -22z m-85 -208 c65 -35 66 -181 2 -267
-20 -27 -31 -33 -62 -33 -46 0 -65 19 -81 78 -20 77 16 187 72 218 28 16 44
17 69 4z"/>
<path d="M7700 1741 c0 -33 11 -51 31 -51 19 0 25 23 13 54 -9 23 -44 20 -44
-3z"/>
<path d="M6749 1728 c-1 -2 -7 -37 -13 -78 l-11 -75 -35 -3 c-19 -2 -39 -7
-44 -12 -15 -15 14 -40 46 -40 29 0 30 -1 24 -37 -23 -161 -27 -226 -16 -254
24 -58 90 -67 142 -20 32 29 32 30 15 48 -18 17 -19 17 -35 -2 -23 -29 -47
-36 -68 -21 -16 12 -16 21 -3 147 l14 134 57 5 c62 6 73 12 65 34 -4 10 -23
16 -59 18 -29 2 -52 8 -52 13 1 6 5 40 9 78 6 63 5 67 -14 67 -12 0 -22 -1
-22 -2z"/>
<path d="M3901 1596 c-9 -10 -7 -17 5 -27 32 -27 46 -77 33 -117 -12 -39 -89
-161 -113 -181 -16 -13 -14 -19 -46 144 -27 139 -36 162 -68 173 -38 12 -77 1
-77 -23 0 -16 7 -20 35 -20 l35 0 35 -177 c34 -172 47 -207 69 -194 5 4 38 44
71 89 131 174 147 253 68 327 -26 24 -32 25 -47 6z"/>
<path d="M4417 1592 c-22 -24 -7 -45 26 -36 25 6 27 4 27 -29 0 -19 -9 -101
-20 -183 -20 -146 -18 -173 12 -161 9 3 20 44 31 117 19 127 45 185 101 219
38 24 72 27 79 8 3 -8 -2 -73 -11 -146 -18 -147 -13 -180 29 -195 37 -13 79 0
79 24 0 16 -7 20 -34 20 -19 0 -37 4 -40 8 -2 4 2 55 10 112 20 146 16 198
-18 223 -33 25 -84 17 -127 -18 -36 -31 -41 -31 -41 -2 0 50 -70 76 -103 39z"/>
<path d="M7692 1592 c-6 -5 -20 -82 -32 -182 -20 -171 -20 -175 -2 -200 23
-31 55 -37 88 -16 43 29 23 70 -22 45 -13 -7 -27 -10 -30 -6 -4 3 1 66 10 140
23 195 21 239 -12 219z"/>
<path d="M3404 1565 c-145 -72 -163 -324 -26 -376 61 -23 172 5 180 46 7 31
-13 38 -49 16 -109 -67 -207 31 -165 163 18 61 60 105 107 115 49 11 82 -1 93
-32 22 -60 -45 -114 -131 -104 -53 6 -80 -16 -48 -39 40 -30 151 -10 196 35
58 58 44 157 -26 187 -48 20 -74 18 -131 -11z"/>
<path d="M4185 1578 c-89 -31 -139 -111 -140 -223 0 -115 53 -175 155 -175 70
0 141 53 112 82 -7 7 -21 4 -45 -11 -63 -39 -145 -19 -166 40 -34 97 23 220
111 238 69 15 113 -26 87 -81 -16 -36 -48 -52 -114 -54 -33 -2 -63 -3 -67 -3
-5 -1 -8 -10 -8 -21 0 -39 122 -39 185 0 38 24 55 58 55 111 0 53 -14 78 -55
95 -40 16 -68 17 -110 2z"/>
<path d="M5420 1579 c-66 -26 -109 -100 -117 -200 -10 -123 37 -199 123 -199
31 0 51 7 73 26 l31 26 21 -26 c11 -14 27 -26 34 -26 22 0 28 20 12 38 -25 30
-26 46 -10 201 12 119 13 155 4 164 -10 9 -16 7 -30 -9 -17 -21 -17 -21 -51
-2 -39 20 -54 21 -90 7z m77 -54 c12 -9 26 -35 33 -64 25 -107 -31 -231 -106
-231 -121 0 -85 304 36 309 9 1 25 -6 37 -14z"/>
<path d="M5694 1576 c-3 -8 13 -87 35 -176 l40 -161 -42 -81 c-25 -49 -58 -95
-84 -118 -45 -39 -52 -54 -29 -63 19 -8 69 25 98 65 32 42 268 503 268 522 0
19 -26 28 -38 13 -5 -7 -38 -68 -72 -136 -34 -68 -65 -120 -69 -115 -5 5 -21
61 -36 124 -15 63 -32 121 -38 128 -13 16 -26 15 -33 -2z"/>
<path d="M6931 1581 c-19 -12 -6 -41 18 -41 11 0 22 -4 25 -8 2 -4 -2 -62 -10
-127 -8 -66 -13 -133 -9 -150 15 -77 96 -100 158 -45 19 17 37 30 40 30 3 0 8
-11 11 -25 8 -31 44 -53 52 -31 3 8 1 30 -4 48 -8 24 -6 72 7 183 16 127 16
152 5 165 -23 24 -33 1 -45 -105 -18 -154 -70 -245 -140 -245 -40 0 -44 26
-28 168 15 145 15 153 -12 175 -23 19 -46 22 -68 8z"/>
<path d="M7930 1583 c-69 -26 -120 -112 -128 -215 -8 -118 44 -188 139 -188
38 0 48 6 89 48 52 54 70 102 70 192 0 75 -21 125 -64 151 -30 18 -75 23 -106
12z m94 -66 c44 -45 42 -158 -5 -234 -25 -41 -47 -53 -93 -53 -50 0 -76 42
-76 125 1 138 103 233 174 162z"/>
</g>
</svg>
